HIERARCHY
ROOT pelvis
{
  OFFSET 0 100 0
  CHANNELS 6 Xposition Yposition Zposition Zrotation Xrotation Yrotation
  JOINT pelvis_right_femur
  {
    OFFSET -10.78128 -3.44521 -0.5502486
    CHANNELS 3 Zrotation Xrotation Yrotation
    JOINT right_femur_tibia
    {
      OFFSET -0.8047443 -44.0398 -0.1307829
      CHANNELS 3 Zrotation Xrotation Yrotation
      JOINT right_tibia_foot
      {
        OFFSET 3.006224 -47.83518 -5
        CHANNELS 3 Zrotation Xrotation Yrotation
        End Site
        {
          OFFSET 0 -5 15
        }
      }
    }
  }
  JOINT pelvis_left_femur
  {
    OFFSET 10.78128 -3.44521 -0.5502486
    CHANNELS 3 Zrotation Xrotation Yrotation
    JOINT left_femur_tibia
    {
      OFFSET 0.8047443 -44.0398 -0.1307829
      CHANNELS 3 Zrotation Xrotation Yrotation
      JOINT left_tibia_foot
      {
        OFFSET -4.370144 -48.10324 -4.275266
        CHANNELS 3 Zrotation Xrotation Yrotation
        End Site
        {
          OFFSET 0 -5 15
        }
      }
    }
  }
  JOINT pelvis_spine1
  {
    OFFSET 0 6.468898 -3.129235
    CHANNELS 3 Zrotation Xrotation Yrotation
    JOINT spine1
    {
      OFFSET 0 23.15396 4.99043
      CHANNELS 3 Zrotation Xrotation Yrotation
      JOINT spine2
      {
        OFFSET 0 20.79997 -5.064912
        CHANNELS 3 Zrotation Xrotation Yrotation
        JOINT neck
        {
          OFFSET 0 14.38658 9.616178
          CHANNELS 3 Zrotation Xrotation Yrotation
          End Site
          {
            OFFSET 0 20 0
          }
        }
      }
      JOINT right_manubrium
      {
        OFFSET -5.722621 16.35077 3.967754
        CHANNELS 3 Zrotation Xrotation Yrotation
        JOINT right_clavicle
        {
          OFFSET -13.16364 1.694482 -4.693211
          CHANNELS 3 Zrotation Xrotation Yrotation
          JOINT right_humerus
          {
            OFFSET -28.5034 -0.3100689 -2.792744
            CHANNELS 3 Zrotation Xrotation Yrotation
            JOINT right_radius
            {
              OFFSET -25.15693 0.02248979 -1.271978
              CHANNELS 3 Zrotation Xrotation Yrotation
              End Site
              {
                OFFSET -15 0 0
              }
            }
          }
        }
      }
      JOINT left_manubrium
      {
        OFFSET 5.722621 16.35077 3.967754
        CHANNELS 3 Zrotation Xrotation Yrotation
        JOINT left_clavicle
        {
          OFFSET 13.16364 1.694482 -4.693211
          CHANNELS 3 Zrotation Xrotation Yrotation
          JOINT left_humerus
          {
            OFFSET 29.39168 -1.063119 -2.237045
            CHANNELS 3 Zrotation Xrotation Yrotation
            JOINT left_radius
            {
              OFFSET 24.59957 -0.9528479 0.9047498
              CHANNELS 3 Zrotation Xrotation Yrotation
              End Site
              {
                OFFSET 15 -0 -0
              }
            }
          }
        }
      }
    }
  }
}
MOTION
Frames: 19
Frame Time: 0.0416666666667
-1042.811 99.29267 -392.2387 9.182548 4.721729 118.9757 7.022718 8.978743 -0.4625107 -0 11.71061 -0 -11.05916 -6.66263 -1.808034 2.284333 -14.13311 -2.335463 -0 35.19755 -0 2.887159 -1.0939 15.52135 1.06109 -3.171089 7.6508 0.04298007 17.00577 -5.740473 0.8211835 20.1738 3.606984 3.026421 -17.34507 3.547812 -0.7071705 -27.44866 13.02544 89.11319 15.70074 -13.3643 -0 0 24.38351 -23.32529 15.71271 11.34818 3.770475 -25.63385 -10.16538 -95.94171 9.513384 32.90241 0 0 -6.991657 9.464324 14.80683 1.055189
-1038.495 98.92875 -395.551 9.101204 4.219713 118.0658 6.664501 11.20562 -0.1651117 -0 12.3702 -0 -10.65461 -9.553765 -1.813628 2.900792 -15.75688 -2.785061 -0 27.56035 -0 2.504076 -1.032539 16.05907 1.085903 -3.140998 7.545159 0.05045664 16.38363 -5.399653 0.8587512 20.18698 3.533636 2.654301 -17.08322 3.800749 -0.4711652 -28.04438 12.88647 87.95349 16.07369 -11.41354 -0 0 25.8143 -23.24986 15.90455 12.45783 3.665689 -24.45372 -9.410099 -96.56421 10.02481 34.20347 0 0 -5.404585 8.408948 15.0133 2.303837
-1034.171 98.2753 -398.9079 8.932306 3.759607 117.1619 6.215353 12.89313 -0.1713642 -0 12.9178 -0 -10.42488 -11.96627 -1.662069 3.262035 -16.97637 -3.400435 -0 21.15121 -0 1.877518 -1.134229 16.61028 1.066735 -3.00545 7.353328 -0.006741995 15.58696 -5.015764 0.879361 20.38503 3.665693 2.570897 -16.68692 4.043786 -0.1130952 -28.10749 12.67867 86.66478 16.89898 -9.667598 -0 0 26.62025 -23.31037 15.81323 13.2884 3.78837 -23.37626 -8.643879 -97.00095 10.55022 34.70738 0 0 -3.858193 7.764192 15.30193 2.959158
-1029.795 97.41198 -402.2885 8.728758 3.407102 116.2582 5.698594 14.15189 -0.4077731 -0 13.41295 -0 -10.38619 -13.68755 -1.396939 3.343683 -17.83523 -4.159504 -0 16.56289 -0 1.051015 -1.330695 17.15852 0.9968559 -2.769975 7.127123 -0.1338107 14.69179 -4.576948 0.9074063 20.74992 3.954127 2.745021 -16.19589 4.271295 0.3041987 -27.68647 12.41334 85.37734 18.01943 -8.186717 -0 0 26.7967 -23.44322 15.43566 13.7925 4.081659 -22.41618 -7.936895 -97.30705 11.07402 34.56098 0 0 -2.307635 7.495766 15.65262 3.109311
-1025.331 96.43202 -405.675 8.532409 3.200005 115.3619 5.125922 15.09152 -0.7880187 -0 13.979 -0 -10.5312 -14.59882 -1.050933 3.162221 -18.38406 -5.020949 -0 13.88728 -0 0.118525 -1.570517 17.67867 0.8745949 -2.460882 6.907484 -0.3275842 13.78352 -4.091534 0.9550674 21.23119 4.337064 3.114073 -15.6627 4.47338 0.7270777 -26.9058 12.11153 84.20977 19.291 -6.992137 -0 0 26.43933 -23.61153 14.82557 13.99914 4.474336 -21.58049 -7.336807 -97.50443 11.55411 33.95609 0 0 -0.788279 7.544391 16.01865 2.874817
-1020.752 95.42682 -409.0553 8.369299 3.145936 114.4908 4.508712 15.7847 -1.238695 -0 14.74236 -0 -10.8358 -14.68167 -0.6416218 2.763471 -18.66654 -5.934565 -0 12.88455 -0 -0.8134224 -1.821068 18.1456 0.7039219 -2.110995 6.716187 -0.5781931 12.93591 -3.582365 1.021872 21.76789 4.761037 3.612366 -15.13527 4.639287 1.126526 -25.90793 11.80029 83.23636 20.61541 -6.076367 -0 0 25.69207 -23.80443 14.06879 13.97508 4.903976 -20.87384 -6.868788 -97.59174 11.93974 33.0664 -0 0 0.6310298 7.853347 16.35244 2.356824
-1016.041 94.47579 -412.4204 8.251767 3.230225 113.6678 3.863661 16.26347 -1.709227 -0 15.78545 -0 -11.26772 -14.00475 -0.1771997 2.207085 -18.71685 -6.85153 -0 13.17423 -0 -1.655154 -2.064895 18.54088 0.4934596 -1.748713 6.558015 -0.8714824 12.2 -3.077912 1.099006 22.30543 5.189287 4.186376 -14.64713 4.759775 1.496642 -24.81563 11.50635 82.48224 21.93868 -5.414152 -0 0 24.70385 -24.02255 13.25546 13.79039 5.327866 -20.29927 -6.540605 -97.56235 12.18771 32.02032 -0 0 1.887922 8.376654 16.61981 1.622135
-1011.199 93.64106 -415.7631 8.181786 3.425973 112.915 3.211875 16.53126 -2.171076 -0 17.12994 -0 -11.79378 -12.69805 0.336598 1.553773 -18.56307 -7.730635 -0 14.36422 -0 -2.346459 -2.295511 18.85469 0.254563 -1.393517 6.42765 -1.191453 11.60267 -2.605458 1.173945 22.80303 5.601255 4.798826 -14.21597 4.827699 1.846086 -23.7184 11.25119 81.93456 23.23816 -4.971682 -0 0 23.6042 -24.26612 12.46143 13.50045 5.723574 -19.85787 -6.348105 -97.41525 12.27058 30.90045 -0 0 2.942296 9.077936 16.80209 0.7095922
-1006.234 92.96604 -419.0756 8.153578 3.702116 112.2502 2.575143 16.57725 -2.612573 -0 18.7431 -0 -12.38421 -10.92294 0.8925113 0.8569482 -18.23095 -8.540953 -0 16.11539 -0 -2.856391 -2.514192 19.08498 -0.0008693174 -1.056115 6.316149 -1.522297 11.15049 -2.187373 1.234003 23.23471 5.988528 5.426827 -13.84732 4.838131 2.189681 -22.67301 11.04871 81.55781 24.51083 -4.713203 -0 0 22.49299 -24.53056 11.74057 13.14192 6.084484 -19.54846 -6.279247 -97.15739 12.17816 29.753 -0 0 3.775051 9.927606 16.8925 -0.3585069
-1001.167 92.47639 -422.3498 8.155935 4.02855 111.6839 1.972625 16.38698 -3.032923 -0 20.55493 -0 -13.01352 -8.845124 1.480615 0.1584441 -17.74547 -9.262128 -0 18.16387 -0 -3.176704 -2.72769 19.23563 -0.2622034 -0.7407145 6.214929 -1.849747 10.83565 -1.839831 1.268729 23.58718 6.350136 6.057663 -13.53959 4.788755 2.542409 -21.70965 10.90521 81.30755 25.76465 -4.605286 -0 0 21.43892 -24.80716 11.12506 12.73616 6.414101 -19.36742 -6.316832 -96.80126 11.91548 28.59839 -0 0 4.380552 10.90057 16.8918 -1.567132
-996.0247 92.18235 -425.5769 8.174687 4.378649 111.2195 1.419177 15.94836 -3.436862 -0 22.47706 -0 -13.65947 -6.615158 2.088529 -0.5124495 -17.13009 -9.883152 -0 20.31945 -0 -3.313781 -2.946368 19.31461 -0.5210597 -0.4478009 6.117306 -2.161652 10.64199 -1.573091 1.271253 23.85659 6.688473 6.684176 -13.28856 4.680449 2.915755 -20.83968 10.82077 81.14071 27.01131 -4.619405 -0 0 20.48264 -25.08544 10.62972 12.29482 6.720954 -19.30891 -6.440574 -96.36178 11.49925 27.44032 -0 0 4.759266 11.97442 16.80489 -2.902547
-990.8361 92.08172 -428.7481 8.195197 4.729967 110.8537 0.9251072 15.25381 -3.830693 -0 24.41841 -0 -14.30148 -4.357793 2.70195 -1.137687 -16.4047 -10.40043 -0 22.45251 -0 -3.281824 -3.182516 19.33228 -0.7714366 -0.1765352 6.01849 -2.447999 10.55007 -1.392533 1.238689 24.04548 7.00642 7.300918 -13.09032 4.51769 3.315917 -20.0628 10.79112 81.02223 28.26014 -4.733305 -0 0 19.64228 -25.35543 10.2575 11.82516 7.014811 -19.36531 -6.62884 -95.85388 10.95412 26.27307 -0 0 4.912907 13.12793 16.63896 -4.34901
-985.6311 92.16276 -431.8547 8.204441 5.06394 110.5775 0.4967117 14.30017 -4.219892 -0 26.29573 -0 -14.91948 -2.168751 3.305229 -1.708039 -15.58366 -10.81573 -0 24.4777 -0 -3.09828 -3.448762 19.29981 -1.009241 0.07359693 5.91496 -2.700648 10.54076 -1.299889 1.171762 24.16012 7.305821 7.901705 -12.94252 4.3085 3.743438 -19.37277 10.80952 80.92818 29.51381 -4.931514 -0 0 18.91948 -25.60894 10.0043 11.33376 7.304332 -19.52797 -6.860172 -95.29117 10.30906 25.0871 -0 0 4.842037 14.34013 16.40262 -5.887496
-980.4373 92.40691 -434.8883 8.192211 5.365251 110.3779 0.1370202 13.08746 -4.608078 -0 28.03895 -0 -15.49361 -0.1164081 3.882116 -2.220483 -14.67452 -11.13431 -0 26.33913 -0 -2.781205 -3.756732 19.22778 -1.231625 0.3019119 5.803868 -2.912993 10.5973 -1.294414 1.073906 24.20859 7.587087 8.478653 -12.84445 4.063801 4.193871 -18.76141 10.86821 80.84612 30.76656 -5.205323 -0 0 18.30485 -25.84 9.862344 10.82835 7.595931 -19.78792 -7.114547 -94.6852 9.594091 23.87281 -0 0 4.545106 15.59017 16.10534 -7.495892
-975.2787 92.79103 -437.8411 8.151277 5.621218 110.239 -0.1534925 11.617 -4.996882 -0 29.59202 -0 -16.00458 1.75389 4.416693 -2.675973 -13.67796 -11.36327 -0 27.99908 -0 -2.347814 -4.116132 19.1251 -1.436451 0.506259 5.682772 -3.07959 10.7063 -1.373969 0.9500666 24.19921 7.849493 9.022353 -12.79657 3.796267 4.659075 -18.22105 10.95958 80.77381 32.00506 -5.552513 -0 0 17.78248 -26.04438 9.822071 10.31797 7.893486 -20.13673 -7.374298 -94.04491 8.837539 22.62287 -0 0 4.01787 16.85756 15.75648 -9.150033
-970.175 93.2891 -440.7059 8.076637 5.821279 110.1436 -0.3762637 9.889727 -5.386256 -0 30.9104 -0 -16.4344 3.414455 4.894305 -3.077834 -12.58859 -11.5101 -0 29.4302 -0 -1.813626 -4.534405 18.99816 -1.622025 0.6831147 5.549706 -3.195743 10.85772 -1.535989 0.8055506 24.13943 8.091706 9.522584 -12.80005 3.519007 5.128604 -17.74584 11.07671 80.71706 33.21084 -5.976982 -0 0 17.33339 -26.21851 9.872815 9.812268 8.198538 -20.56718 -7.624569 -93.37622 8.064145 21.33306 -0 0 3.252611 18.12255 15.36402 -10.82471
-965.1404 93.87343 -443.4764 7.964307 5.956593 110.0744 -0.5340079 7.905001 -5.774838 -0 31.95643 -0 -16.7668 4.849868 5.302207 -3.430763 -11.39634 -11.58159 -0 30.61034 -0 -1.192089 -5.016982 18.85061 -1.787053 0.8278193 5.403422 -3.25707 11.04437 -1.778208 0.6452046 24.03514 8.312138 9.968911 -12.85656 3.244512 5.590694 -17.33226 11.21371 80.68778 34.36283 -6.488268 -0 0 16.93782 -26.35816 10.00272 9.320455 8.510665 -21.07357 -7.853239 -92.68183 7.294398 20.00248 -0 0 2.237238 19.36571 14.93332 -12.49379
-960.1841 94.51529 -446.1479 7.81017 6.019767 110.0148 -0.6300661 5.66076 -6.160167 -0 32.69382 -0 -16.98729 6.05236 5.629758 -3.740314 -10.08814 -11.58309 -0 31.51909 -0 -0.4948984 -5.56794 18.68351 -1.930677 0.9348213 5.243642 -3.259158 11.26101 -2.098914 0.4731441 23.89047 8.508966 10.35078 -12.96819 2.984222 6.032437 -16.97919 11.36549 80.7027 35.43859 -7.100859 -0 0 16.57636 -26.45729 10.19826 8.850798 8.827817 -21.65148 -8.050425 -91.96152 6.545304 18.63354 -0 0 0.9548513 20.56648 14.46681 -14.12891
-955.3091 95.18504 -448.7172 7.609366 6.004875 109.95 -0.6678097 3.155753 -6.538735 -0 33.08275 -0 -17.08293 7.018695 5.868322 -4.012727 -8.649857 -11.51835 -0 32.13582 -0 0.2666496 -6.190679 18.49578 -2.052482 0.99793 5.071255 -3.197494 11.50324 -2.496508 0.293058 23.70816 8.679822 10.65708 -13.13737 2.748763 6.439069 -16.68775 11.52734 80.78295 36.41336 -7.833071 -0 0 16.23028 -26.50759 10.44356 8.410771 9.146454 -22.29674 -8.207836 -91.21298 5.832441 17.23243 0 0 -0.6154118 21.70066 13.96493 -15.69665
